<svg xmlns="http://www.w3.org/2000/svg" width="1448" height="268" viewBox="0 0 1448 268" fill="none" id="svg753613359_10773">
<path d="M544.75 68.64H582.97V190.42C582.97 209.93 576.2 225.91 562.67 238.39C549.14 250.87 532.71 257.1 513.38 257.1C489.13 257.1 468.92 247.61 452.75 228.63L478.58 205.7C488.6 217.47 500.1 223.36 513.11 223.36C522.6 223.36 530.24 220.41 536.04 214.53C541.84 208.64 544.74 200.43 544.74 189.88V184.61C535.07 196.03 522.34 201.74 506.52 201.74C490.7 201.74 475.94 195.46 464.35 182.89C452.75 170.33 446.86 154.2 446.69 134.52C446.51 114.66 452.18 98.06 463.69 84.7C475.2 71.35 489.48 64.67 506.52 64.67C522.68 64.67 535.42 70.65 544.74 82.59V68.62L544.75 68.64ZM515.49 164.85C523.57 164.85 530.47 162.08 536.18 156.55C541.89 151.01 544.75 143.24 544.75 133.22C544.75 123.2 541.76 115.82 535.79 110.02C529.81 104.22 522.7 101.41 514.44 101.59C506.35 101.77 499.55 104.67 494.01 110.29C488.47 115.92 485.71 123.47 485.71 132.96C485.71 142.45 488.56 150.36 494.28 156.16C499.99 161.96 507.06 164.86 515.5 164.86L515.49 164.85Z" fill="white"></path>
<path d="M719.51 123.47C720.39 131.38 720.21 139.73 718.98 148.51H629.1C633.32 163.27 642.81 170.65 657.57 170.65C664.42 170.65 670.53 169.03 675.89 165.77C681.25 162.52 685.33 158.26 688.15 152.99L716.88 169.33C711.43 179.87 703.13 188.35 691.97 194.77C680.81 201.18 668.91 204.39 656.25 204.39C637.44 204.39 621.89 197.76 609.59 184.49C597.29 171.22 591.14 154.57 591.14 134.54C591.14 114.51 597.29 97.64 609.59 84.46C621.89 71.28 637.7 64.69 657.04 64.69C673.91 64.69 688.05 69.96 699.48 80.51C710.9 91.05 717.58 105.38 719.51 123.48V123.47ZM655.72 98.43C641.49 98.43 632.61 105.99 629.1 121.1H681.82C680.94 114.25 678.13 108.76 673.38 104.63C668.64 100.5 662.75 98.44 655.72 98.44V98.43Z" fill="white"></path>
<path d="M808.34 64.43C823.1 64.43 835.09 70.14 844.32 81.56C853.55 92.99 858.16 107.04 858.16 123.73V200.43H819.94V131.63C819.94 122.67 817.74 115.38 813.35 109.75C808.96 104.13 803.16 101.32 795.95 101.32C788.74 101.32 782.33 104.18 777.24 109.89C772.14 115.6 769.6 122.85 769.6 131.64V200.44H731.64V68.64H769.6V82.87C779.62 70.57 792.53 64.42 808.35 64.42L808.34 64.43Z" fill="white"></path>
<path d="M901.649 54.15C895.149 54.15 889.609 52.09 885.039 47.96C880.469 43.83 878.189 38.6 878.189 32.28C878.189 25.96 880.469 20.77 885.039 16.73C889.609 12.69 895.139 10.67 901.649 10.67C908.159 10.67 913.379 12.74 917.859 16.86C922.339 20.99 924.579 26.13 924.579 32.28C924.579 38.43 922.339 43.84 917.859 47.96C913.379 52.09 907.979 54.15 901.649 54.15ZM881.619 68.64H921.159V200.43H881.619V68.64Z" fill="white"></path>
<path d="M1061.91 123.47C1062.79 131.38 1062.61 139.73 1061.38 148.51H971.5C975.72 163.27 985.21 170.65 999.97 170.65C1006.82 170.65 1012.93 169.03 1018.29 165.77C1023.65 162.52 1027.73 158.26 1030.55 152.99L1059.28 169.33C1053.83 179.87 1045.53 188.35 1034.37 194.77C1023.21 201.18 1011.31 204.39 998.65 204.39C979.84 204.39 964.29 197.76 951.99 184.49C939.69 171.22 933.54 154.57 933.54 134.54C933.54 114.51 939.69 97.64 951.99 84.46C964.29 71.28 980.1 64.69 999.44 64.69C1016.31 64.69 1030.45 69.96 1041.88 80.51C1053.3 91.05 1059.98 105.38 1061.91 123.48V123.47ZM998.12 98.43C983.89 98.43 975.01 105.99 971.5 121.1H1024.22C1023.34 114.25 1020.53 108.76 1015.79 104.63C1011.05 100.5 1005.16 98.44 998.13 98.44L998.12 98.43Z" fill="white"></path>
<path d="M1153.11 64.69C1170.15 64.69 1184.43 71.37 1195.94 84.72C1207.45 98.08 1213.11 114.68 1212.94 134.54C1212.76 154.4 1206.88 171.01 1195.28 184.36C1183.68 197.72 1169.45 204.39 1152.58 204.39C1137.11 204.39 1124.55 198.68 1114.89 187.26V253.16H1076.67V68.64H1114.89V82.61C1124.2 70.66 1136.94 64.69 1153.11 64.69ZM1144.42 167.49C1152.68 167.49 1159.66 164.37 1165.38 158.13C1171.09 151.89 1173.95 143.94 1173.95 134.28C1173.95 124.62 1171.18 117.01 1165.65 110.95C1160.11 104.89 1153.3 101.77 1145.22 101.59C1136.96 101.42 1129.84 104.4 1123.87 110.55C1117.89 116.7 1114.91 124.7 1114.91 134.54C1114.91 144.38 1117.81 152.55 1123.61 158.53C1129.41 164.51 1136.35 167.49 1144.43 167.49H1144.42Z" fill="white"></path>
<path d="M1290.18 204.39C1270.67 204.39 1254.11 197.58 1240.49 183.96C1226.87 170.34 1220.06 153.87 1220.06 134.54C1220.06 115.21 1226.87 98.74 1240.49 85.12C1254.11 71.5 1270.67 64.69 1290.18 64.69C1309.69 64.69 1325.94 71.5 1339.47 85.12C1353 98.74 1359.77 115.21 1359.77 134.54C1359.77 153.87 1353 170.35 1339.47 183.96C1325.94 197.58 1309.51 204.39 1290.18 204.39ZM1290.18 167.23C1298.79 167.23 1306.04 164.07 1311.93 157.74C1317.82 151.41 1320.76 143.68 1320.76 134.54C1320.76 125.4 1317.86 117.45 1312.06 111.21C1306.26 104.97 1298.97 101.85 1290.18 101.85C1281.39 101.85 1273.79 104.97 1267.91 111.21C1262.02 117.45 1259.08 125.23 1259.08 134.54C1259.08 143.85 1262.02 151.63 1267.91 157.87C1273.8 164.11 1281.22 167.23 1290.18 167.23Z" fill="white"></path>
<path d="M1447.28 102.91H1416.97V149.04C1416.97 154.67 1418.11 158.71 1420.4 161.16C1422.68 163.62 1426.37 164.85 1431.47 164.85H1447.29V200.43H1423.57C1407.93 200.43 1396.55 196.83 1389.44 189.62C1382.32 182.42 1378.76 171.08 1378.76 155.62V102.9H1355.04V68.63H1378.76V37L1416.98 25.14V68.63H1447.29V102.9L1447.28 102.91Z" fill="white"></path>
<path d="M382.28 87.37C382.22 87.33 382.15 87.29 382.09 87.26C379.59 85.81 376.98 84.53 374.27 83.43C374.2 83.4 374.13 83.37 374.05 83.34C366.94 80.5 359.18 78.94 351.06 78.94C336.18 78.94 322.53 84.18 311.85 92.91C311.78 92.97 311.71 93.03 311.64 93.08C309.32 94.99 307.15 97.07 305.13 99.29C305.07 99.36 305.01 99.42 304.95 99.49C304.06 100.48 303.2 101.5 302.37 102.55C302.32 102.62 302.26 102.69 302.21 102.76C300.43 98.16 299.46 93.15 299.46 87.93C299.46 86.76 299.51 85.6 299.6 84.46C299.66 84.48 299.71 84.5 299.77 84.51C300.16 84.62 300.56 84.68 300.98 84.7C301.04 84.7 301.11 84.7 301.17 84.7C301.19 84.7 301.21 84.7 301.22 84.7C302.52 84.69 303.69 84.2 304.59 83.4C305.65 82.45 306.33 81.07 306.33 79.53C306.33 77.28 304.89 75.36 302.88 74.66C302.84 74.65 302.8 74.63 302.76 74.62C302.78 74.56 302.81 74.49 302.83 74.43C303.22 73.34 303.43 72.17 303.43 70.96C303.43 70.79 303.43 70.63 303.42 70.46C303.42 70.39 303.42 70.32 303.41 70.25C303.05 64.88 298.57 60.63 293.11 60.63C291.65 60.63 290.26 60.93 288.99 61.49C288.91 61.52 288.84 61.56 288.76 61.59C288.75 61.57 288.74 61.56 288.72 61.54C275.63 43.5 256.21 30.35 233.72 25.35C233.72 25.35 233.62 25.33 233.58 25.32C233.59 25.26 233.61 25.19 233.62 25.13C233.94 23.69 234.11 22.2 234.11 20.66C234.11 9.25 224.86 0 213.45 0C208.48 0 203.92 1.76 200.35 4.69C200.27 4.75 200.19 4.82 200.12 4.88C195.64 8.66 192.79 14.33 192.79 20.66C192.79 22.22 192.96 23.74 193.3 25.21C193.3 25.25 193.31 25.28 193.32 25.32C187.56 26.59 182 28.4 176.7 30.68C176.62 30.71 176.55 30.75 176.47 30.78C168.64 34.18 161.38 38.62 154.85 43.93C154.79 43.98 154.72 44.03 154.66 44.09C154.51 44.22 154.35 44.34 154.2 44.47C153.73 44.86 153.27 45.25 152.81 45.65C147.36 50.34 142.46 55.66 138.22 61.49C138.18 61.55 138.13 61.61 138.09 61.67C136.73 61 135.19 60.63 133.58 60.63C131.11 60.63 128.84 61.5 127.06 62.95C127.04 62.96 127.02 62.98 127 63C124.99 64.66 123.63 67.05 123.32 69.77C123.3 69.92 123.29 70.08 123.28 70.23C123.26 70.47 123.25 70.71 123.25 70.96C123.25 72.23 123.48 73.44 123.9 74.57C123.91 74.59 123.92 74.62 123.93 74.65C123.37 74.84 122.85 75.12 122.39 75.49C121.19 76.43 120.42 77.9 120.42 79.54C120.42 82.39 122.73 84.7 125.59 84.7C125.71 84.7 125.83 84.7 125.95 84.69C126 84.69 126.05 84.69 126.09 84.68C126.45 84.64 126.79 84.58 127.12 84.48C127.22 85.62 127.26 86.77 127.26 87.93C127.26 96.03 124.93 103.59 120.89 109.97C120.83 110.07 120.76 110.18 120.69 110.28C118.41 113.81 115.62 116.97 112.41 119.65C112.41 119.65 112.41 119.65 112.4 119.66C110.2 121.5 107.81 123.11 105.26 124.46C105.18 124.51 105.09 124.55 105.01 124.6C105.01 124.6 104.96 124.58 104.94 124.58C90.5798 119.5 78.6498 109.28 71.3598 96.13C70.9698 95.44 70.5998 94.73 70.2398 94.02C70.2398 94.01 70.2298 94 70.2198 93.99C69.6898 92.95 69.1998 91.89 68.7398 90.81C68.7398 90.81 68.7398 90.81 68.7398 90.8C68.7398 90.78 68.7298 90.77 68.7198 90.75C66.2698 85.9 63.2098 81.41 59.6398 77.4C59.6198 77.38 59.6098 77.36 59.5898 77.34C56.6198 74.01 53.2898 71 49.6698 68.38C49.6498 68.36 49.6198 68.34 49.5998 68.33C49.2398 68.07 48.8798 67.82 48.5098 67.57C48.4598 67.54 48.4198 67.51 48.3798 67.48C41.5298 62.78 33.6898 59.41 25.2398 57.77L2.31979 70.24L0.0297852 71.49C11.7198 74.37 22.1098 80.56 30.1398 89.02C37.2898 96.56 42.5698 105.89 45.2298 116.27C45.4698 119.2 45.7898 122.11 46.1798 125C46.2698 125.65 46.3598 126.29 46.4498 126.93C46.6698 128.39 46.8998 129.84 47.1598 131.28C48.6798 139.97 50.8798 148.44 53.7098 156.6C53.9698 157.35 54.2298 158.09 54.4998 158.83C54.7998 159.44 55.0998 160.04 55.4198 160.64C55.8198 161.41 56.2298 162.18 56.6498 162.93C56.6498 162.93 56.6498 162.93 56.6498 162.94C65.2998 178.36 78.7598 190.72 94.9898 197.99C101.03 221.25 116.95 240.53 138 251.08C138.99 251.57 139.99 252.04 141 252.5C141.23 252.61 141.46 252.72 141.7 252.82C144.7 254.18 147.74 255.47 150.83 256.66C151.01 256.73 151.2 256.8 151.39 256.87C167.94 263.22 185.7 267.05 204.34 267.67C204.37 267.67 204.4 267.67 204.44 267.67C206.26 267.73 208.08 267.76 209.92 267.76C228.11 267.76 245.61 264.82 261.98 259.39C262.06 259.36 262.14 259.34 262.23 259.31C267.9 257.42 273.43 255.23 278.81 252.76C287.55 248.4 309.53 234.79 311.44 232.9C311.44 232.9 312 232.35 312.27 232.08L312.34 232.04L312.97 231.7L373.84 198.58H373.86L374.45 198.25L386.87 191.49L387.02 191.41H387.04C387.14 191.33 387.24 191.26 387.34 191.18C388.43 190.39 389.5 189.57 390.53 188.71C390.65 188.61 390.76 188.52 390.88 188.42C391.04 188.29 391.2 188.15 391.36 188.02C401.22 179.58 408.4 168.1 411.44 155.03C411.44 155.01 411.45 154.99 411.45 154.97C412.5 150.45 413.05 145.75 413.05 140.91C413.05 118.07 400.69 98.12 382.3 87.37H382.28ZM377.54 172.61C377.41 172.72 377.27 172.83 377.13 172.94C375.95 173.91 374.71 174.8 373.43 175.63C373.23 175.76 373.03 175.88 372.83 176.01C371.48 176.85 370.08 177.62 368.63 178.3C368.42 178.4 368.2 178.5 367.99 178.6L351.78 187.42L332.66 197.83C334.44 191.93 335.57 185.76 335.98 179.38C335.92 179.36 335.86 179.33 335.81 179.31C335.81 179.24 335.81 179.16 335.82 179.09C335.92 177.45 335.97 175.79 335.97 174.12C335.97 154.39 329.05 136.28 317.52 122.07C316.75 121.55 316 121 315.27 120.42C315.25 120.4 315.23 120.38 315.2 120.37C315.24 120.3 315.28 120.23 315.32 120.16C315.4 120.02 315.48 119.89 315.56 119.75C315.6 119.68 315.65 119.6 315.69 119.53C318.06 115.61 321.07 112.11 324.57 109.19C331.74 103.2 340.97 99.59 351.04 99.59C360 99.59 368.29 102.44 375.06 107.29C375.12 107.33 375.18 107.38 375.24 107.42C375.71 107.76 376.16 108.11 376.61 108.46C376.63 108.48 376.66 108.5 376.68 108.51C386.23 116.08 392.35 127.77 392.35 140.9C392.35 154.03 386.59 165.03 377.52 172.61H377.54Z" fill="#B6FA01"></path>
</svg>